<svg width="221" height="101" viewBox="0 0 221 101" fill="none" xmlns="http://www.w3.org/2000/svg">
<path d="M131.2 30.8C133.912 30.8 135.964 31.508 137.356 32.924C138.772 34.316 139.48 36.368 139.48 39.08V47.72C139.48 50.432 138.772 52.496 137.356 53.912C135.964 55.304 133.912 56 131.2 56H117.16V30.8H131.2ZM133 39.08C133 36.92 131.92 35.84 129.76 35.84H123.64V50.96H129.76C131.92 50.96 133 49.88 133 47.72V39.08ZM165.93 56H145.95V30.8H165.93V35.84H152.43V40.7H163.05V45.74H152.43V50.96H165.93V56ZM170.926 50.78C177.502 51.14 181.954 51.32 184.282 51.32C184.834 51.32 185.266 51.164 185.578 50.852C185.914 50.516 186.082 50.072 186.082 49.52V46.28H177.802C175.282 46.28 173.446 45.716 172.294 44.588C171.166 43.436 170.602 41.6 170.602 39.08V38C170.602 35.48 171.166 33.656 172.294 32.528C173.446 31.376 175.282 30.8 177.802 30.8H190.438V35.84H179.242C177.802 35.84 177.082 36.56 177.082 38V38.72C177.082 40.16 177.802 40.88 179.242 40.88H185.722C188.074 40.88 189.802 41.432 190.906 42.536C192.01 43.64 192.562 45.368 192.562 47.72V49.52C192.562 51.872 192.01 53.6 190.906 54.704C189.802 55.808 188.074 56.36 185.722 56.36C184.498 56.36 183.202 56.336 181.834 56.288L178.522 56.144C176.074 56.024 173.542 55.856 170.926 55.64V50.78Z" fill="#EBE4C2"/>
<path d="M108.727 63.202C109.351 63.202 109.823 63.3649 110.144 63.6907C110.469 64.0109 110.632 64.4831 110.632 65.107V67.0949C110.632 67.7189 110.469 68.1938 110.144 68.5196C109.823 68.8399 109.351 69 108.727 69H105.497V63.202H108.727ZM109.141 65.107C109.141 64.6101 108.893 64.3616 108.396 64.3616H106.988V67.8404H108.396C108.893 67.8404 109.141 67.5919 109.141 67.0949V65.107ZM113.074 65.5626C112.853 65.5626 112.742 65.673 112.742 65.8939V66.3495H114.15V65.8939C114.15 65.673 114.04 65.5626 113.819 65.5626H113.074ZM115.434 68.9172C114.368 69.0276 113.402 69.0828 112.535 69.0828C112.16 69.0828 111.859 68.9696 111.632 68.7432C111.406 68.5168 111.293 68.2159 111.293 67.8404V65.8525C111.293 65.4384 111.409 65.1153 111.641 64.8834C111.878 64.646 112.204 64.5272 112.618 64.5272H114.275C114.689 64.5272 115.012 64.646 115.244 64.8834C115.481 65.1153 115.6 65.4384 115.6 65.8525V67.3848H112.742V67.7162C112.742 67.799 112.77 67.868 112.825 67.9232C112.88 67.9784 112.949 68.0061 113.032 68.0061C113.579 68.0061 114.379 67.9646 115.434 67.8818V68.9172ZM116.176 67.8404C117.297 67.9232 118.181 67.9646 118.827 67.9646C118.91 67.9646 118.979 67.937 119.034 67.8818C119.089 67.8266 119.117 67.7576 119.117 67.6747V67.3848H117.336C116.961 67.3848 116.66 67.2716 116.433 67.0452C116.207 66.8188 116.094 66.5179 116.094 66.1424V65.8525C116.094 65.477 116.207 65.1761 116.433 64.9497C116.66 64.7233 116.961 64.6101 117.336 64.6101H120.152V65.6868H117.833C117.75 65.6868 117.681 65.7145 117.626 65.7697C117.571 65.8249 117.543 65.8939 117.543 65.9767C117.543 66.0596 117.571 66.1286 117.626 66.1838C117.681 66.239 117.75 66.2666 117.833 66.2666H119.324C119.699 66.2666 120 66.3798 120.227 66.6062C120.453 66.8326 120.566 67.1336 120.566 67.5091V67.8404C120.566 68.2159 120.453 68.5168 120.227 68.7432C120 68.9696 119.699 69.0828 119.324 69.0828C118.347 69.0828 117.297 69.0276 116.176 68.9172V67.8404ZM122.888 64.7757V69H121.439V65.8939H120.817V64.7757H122.888ZM121.439 63.1191H122.888V64.2788H121.439V63.1191ZM126.577 68.6687C126.041 68.7791 125.572 68.8343 125.169 68.8343H124.879C124.503 68.8343 124.202 68.7211 123.976 68.4947C123.749 68.2683 123.636 67.9674 123.636 67.5919V65.9353C123.636 65.5212 123.752 65.1982 123.984 64.9662C124.222 64.7288 124.547 64.6101 124.961 64.6101H128.026V69.2485C128.026 69.624 127.913 69.9249 127.687 70.1513C127.46 70.3777 127.159 70.4909 126.784 70.4909C125.917 70.4909 124.95 70.4357 123.885 70.3253V69.2485C124.939 69.3313 125.74 69.3727 126.287 69.3727C126.37 69.3727 126.439 69.3451 126.494 69.2899C126.549 69.2347 126.577 69.1657 126.577 69.0828V68.6687ZM125.583 67.7162C125.931 67.7162 126.262 67.6885 126.577 67.6333V65.7283H125.417C125.196 65.7283 125.086 65.8387 125.086 66.0596V67.4263C125.086 67.5091 125.113 67.5781 125.169 67.6333C125.224 67.6885 125.293 67.7162 125.376 67.7162H125.583ZM131.299 65.7283C131.006 65.7283 130.675 65.7835 130.305 65.8939V69H128.855V64.6101H130.139L130.222 65.0242C130.482 64.853 130.747 64.7288 131.017 64.6515C131.293 64.5687 131.525 64.5272 131.713 64.5272H132.086C132.461 64.5272 132.762 64.6404 132.989 64.8668C133.215 65.0932 133.328 65.3942 133.328 65.7697V69H131.879V66.0182C131.879 65.9353 131.851 65.8663 131.796 65.8111C131.741 65.7559 131.672 65.7283 131.589 65.7283H131.299ZM141.236 69H136.639V63.202H141.236V64.3616H138.13V65.4798H140.573V66.6394H138.13V67.8404H141.236V69ZM145.375 64.3202C145.215 64.3091 145.002 64.2926 144.737 64.2705C144.472 64.2484 144.243 64.2373 144.05 64.2373C143.857 64.2373 143.732 64.2649 143.677 64.3202C143.622 64.3754 143.594 64.4444 143.594 64.5272V64.9414H144.961V66.0596H143.594V69H142.145V66.0596H141.565V64.9414H142.145V64.3616C142.145 63.9861 142.258 63.6851 142.484 63.4587C142.711 63.2323 143.012 63.1191 143.387 63.1191C143.724 63.1191 144.08 63.1302 144.456 63.1523C144.831 63.1744 145.138 63.1909 145.375 63.202V64.3202ZM149.104 64.3202C148.944 64.3091 148.731 64.2926 148.466 64.2705C148.201 64.2484 147.972 64.2373 147.779 64.2373C147.586 64.2373 147.461 64.2649 147.406 64.3202C147.351 64.3754 147.323 64.4444 147.323 64.5272V64.9414H148.69V66.0596H147.323V69H145.874V66.0596H145.294V64.9414H145.874V64.3616C145.874 63.9861 145.987 63.6851 146.213 63.4587C146.44 63.2323 146.741 63.1191 147.116 63.1191C147.453 63.1191 147.809 63.1302 148.185 63.1523C148.56 63.1744 148.867 63.1909 149.104 63.202V64.3202ZM151.094 64.7757V69H149.644V65.8939H149.023V64.7757H151.094ZM149.644 63.1191H151.094V64.2788H149.644V63.1191ZM155.817 68.9172C154.785 69.0276 153.874 69.0828 153.084 69.0828C152.709 69.0828 152.408 68.9696 152.181 68.7432C151.955 68.5168 151.842 68.2159 151.842 67.8404V65.9353C151.842 65.5212 151.958 65.1982 152.19 64.9662C152.427 64.7288 152.753 64.6101 153.167 64.6101H155.817V65.7283H153.623C153.402 65.7283 153.291 65.8387 153.291 66.0596V67.6747C153.291 67.7576 153.319 67.8266 153.374 67.8818C153.429 67.937 153.498 67.9646 153.581 67.9646C154.078 67.9646 154.824 67.9232 155.817 67.8404V68.9172ZM158.301 64.7757V69H156.851V65.8939H156.23V64.7757H158.301ZM156.851 63.1191H158.301V64.2788H156.851V63.1191ZM160.83 65.5626C160.609 65.5626 160.498 65.673 160.498 65.8939V66.3495H161.906V65.8939C161.906 65.673 161.796 65.5626 161.575 65.5626H160.83ZM163.19 68.9172C162.124 69.0276 161.158 69.0828 160.291 69.0828C159.916 69.0828 159.615 68.9696 159.388 68.7432C159.162 68.5168 159.049 68.2159 159.049 67.8404V65.8525C159.049 65.4384 159.165 65.1153 159.397 64.8834C159.634 64.646 159.96 64.5272 160.374 64.5272H162.031C162.445 64.5272 162.768 64.646 163 64.8834C163.237 65.1153 163.356 65.4384 163.356 65.8525V67.3848H160.498V67.7162C160.498 67.799 160.526 67.868 160.581 67.9232C160.636 67.9784 160.705 68.0061 160.788 68.0061C161.335 68.0061 162.136 67.9646 163.19 67.8818V68.9172ZM166.542 65.7283C166.249 65.7283 165.918 65.7835 165.548 65.8939V69H164.098V64.6101H165.382L165.465 65.0242C165.724 64.853 165.989 64.7288 166.26 64.6515C166.536 64.5687 166.768 64.5272 166.956 64.5272H167.328C167.704 64.5272 168.005 64.6404 168.231 64.8668C168.458 65.0932 168.571 65.3942 168.571 65.7697V69H167.121V66.0182C167.121 65.9353 167.094 65.8663 167.039 65.8111C166.983 65.7559 166.914 65.7283 166.831 65.7283H166.542ZM172.38 69C171.844 69.0552 171.32 69.0828 170.806 69.0828C170.431 69.0828 170.13 68.9696 169.903 68.7432C169.677 68.5168 169.564 68.2159 169.564 67.8404V65.7283H169.067V64.6101H169.564L169.729 63.6161H171.013V64.6101H172.049V65.7283H171.013V67.6333C171.013 67.7162 171.041 67.7852 171.096 67.8404C171.151 67.8956 171.22 67.9232 171.303 67.9232H172.38V69ZM175.356 67.799C176.869 67.8818 177.893 67.9232 178.428 67.9232C178.555 67.9232 178.655 67.8873 178.727 67.8155C178.804 67.7382 178.843 67.6361 178.843 67.5091V66.7636H176.938C176.358 66.7636 175.935 66.6339 175.67 66.3743C175.411 66.1093 175.281 65.6868 175.281 65.107V64.8586C175.281 64.2788 175.411 63.8591 175.67 63.5996C175.935 63.3345 176.358 63.202 176.938 63.202H179.845V64.3616H177.269C176.938 64.3616 176.772 64.5272 176.772 64.8586V65.0242C176.772 65.3555 176.938 65.5212 177.269 65.5212H178.76C179.301 65.5212 179.699 65.6482 179.953 65.9022C180.207 66.1562 180.334 66.5538 180.334 67.0949V67.5091C180.334 68.0502 180.207 68.4478 179.953 68.7018C179.699 68.9558 179.301 69.0828 178.76 69.0828C178.478 69.0828 178.18 69.0773 177.865 69.0663L177.103 69.0331C176.54 69.0055 175.957 68.9669 175.356 68.9172V67.799ZM185.468 67.7576C185.468 68.1717 185.35 68.4975 185.112 68.7349C184.88 68.9669 184.557 69.0828 184.143 69.0828H182.238C181.824 69.0828 181.498 68.9669 181.261 68.7349C181.029 68.4975 180.913 68.1717 180.913 67.7576V65.8525C180.913 65.4384 181.029 65.1153 181.261 64.8834C181.498 64.646 181.824 64.5272 182.238 64.5272H184.143C184.557 64.5272 184.88 64.646 185.112 64.8834C185.35 65.1153 185.468 65.4384 185.468 65.8525V67.7576ZM184.019 65.9767C184.019 65.7559 183.908 65.6454 183.687 65.6454H182.694C182.473 65.6454 182.362 65.7559 182.362 65.9767V67.6333C182.362 67.8542 182.473 67.9646 182.694 67.9646H183.687C183.908 67.9646 184.019 67.8542 184.019 67.6333V65.9767ZM188.449 69C188.079 69.0552 187.726 69.0828 187.389 69.0828C187.058 69.0828 186.779 68.9696 186.552 68.7432C186.326 68.5168 186.213 68.2159 186.213 67.8404V63.202H187.662V67.6333C187.662 67.7162 187.69 67.7852 187.745 67.8404C187.8 67.8956 187.869 67.9232 187.952 67.9232H188.449V69ZM191.057 67.8818C191.35 67.8818 191.681 67.8266 192.051 67.7162V64.6101H193.5V69H192.217L192.134 68.5859C191.874 68.757 191.606 68.884 191.33 68.9669C191.06 69.0442 190.831 69.0828 190.643 69.0828H190.27C189.895 69.0828 189.594 68.9696 189.367 68.7432C189.141 68.5168 189.028 68.2159 189.028 67.8404V64.6101H190.477V67.5919C190.477 67.6747 190.505 67.7438 190.56 67.799C190.615 67.8542 190.684 67.8818 190.767 67.8818H191.057ZM197.39 69C196.855 69.0552 196.33 69.0828 195.817 69.0828C195.441 69.0828 195.14 68.9696 194.914 68.7432C194.687 68.5168 194.574 68.2159 194.574 67.8404V65.7283H194.077V64.6101H194.574L194.74 63.6161H196.024V64.6101H197.059V65.7283H196.024V67.6333C196.024 67.7162 196.051 67.7852 196.107 67.8404C196.162 67.8956 196.231 67.9232 196.314 67.9232H197.39V69ZM199.634 64.7757V69H198.185V65.8939H197.564V64.7757H199.634ZM198.185 63.1191H199.634V64.2788H198.185V63.1191ZM204.938 67.7576C204.938 68.1717 204.819 68.4975 204.582 68.7349C204.35 68.9669 204.027 69.0828 203.613 69.0828H201.708C201.293 69.0828 200.968 68.9669 200.73 68.7349C200.498 68.4975 200.382 68.1717 200.382 67.7576V65.8525C200.382 65.4384 200.498 65.1153 200.73 64.8834C200.968 64.646 201.293 64.5272 201.708 64.5272H203.613C204.027 64.5272 204.35 64.646 204.582 64.8834C204.819 65.1153 204.938 65.4384 204.938 65.8525V67.7576ZM203.488 65.9767C203.488 65.7559 203.378 65.6454 203.157 65.6454H202.163C201.942 65.6454 201.832 65.7559 201.832 65.9767V67.6333C201.832 67.8542 201.942 67.9646 202.163 67.9646H203.157C203.378 67.9646 203.488 67.8542 203.488 67.6333V65.9767ZM208.126 65.7283C207.833 65.7283 207.502 65.7835 207.132 65.8939V69H205.682V64.6101H206.966L207.049 65.0242C207.309 64.853 207.574 64.7288 207.844 64.6515C208.12 64.5687 208.352 64.5272 208.54 64.5272H208.913C209.288 64.5272 209.589 64.6404 209.816 64.8668C210.042 65.0932 210.155 65.3942 210.155 65.7697V69H208.706V66.0182C208.706 65.9353 208.678 65.8663 208.623 65.8111C208.568 65.7559 208.499 65.7283 208.416 65.7283H208.126ZM210.734 67.8404C211.855 67.9232 212.738 67.9646 213.385 67.9646C213.467 67.9646 213.536 67.937 213.592 67.8818C213.647 67.8266 213.674 67.7576 213.674 67.6747V67.3848H211.894C211.518 67.3848 211.217 67.2716 210.991 67.0452C210.764 66.8188 210.651 66.5179 210.651 66.1424V65.8525C210.651 65.477 210.764 65.1761 210.991 64.9497C211.217 64.7233 211.518 64.6101 211.894 64.6101H214.71V65.6868H212.391C212.308 65.6868 212.239 65.7145 212.183 65.7697C212.128 65.8249 212.101 65.8939 212.101 65.9767C212.101 66.0596 212.128 66.1286 212.183 66.1838C212.239 66.239 212.308 66.2666 212.391 66.2666H213.881C214.257 66.2666 214.558 66.3798 214.784 66.6062C215.011 66.8326 215.124 67.1336 215.124 67.5091V67.8404C215.124 68.2159 215.011 68.5168 214.784 68.7432C214.558 68.9696 214.257 69.0828 213.881 69.0828C212.904 69.0828 211.855 69.0276 210.734 68.9172V67.8404Z" fill="#EBE4C2"/>
<path d="M71.4031 10H26.2804C17.3013 10 10 17.238 10 26.1844V72.355C10 80.9867 17.0745 88 25.7816 88H67.6391C78.2509 88 86.8673 79.4582 86.8673 68.9383V25.3303V25.2853C88.001 18.5867 81.7881 10.6294 71.4031 10ZM84.2824 69.4778C84.2824 78.5591 76.8451 85.932 67.6845 85.932H25.056C17.9362 85.932 12.1768 80.2225 12.1768 73.1643V24.9256C12.1768 17.9124 17.9362 12.2029 25.056 12.2029H71.4485C78.5683 12.2029 84.3277 17.9124 84.3277 24.9706L84.2824 69.4778Z" fill="#EBE4C2"/>
<path d="M62.6524 40.0084C59.783 39.8711 56.957 41.4273 57.0005 43.6242C57.044 45.9127 58.87 47.24 62.3046 48.4758C64.5219 49.2538 67.0436 50.6269 68.8261 52C69 51.4965 69 50.9931 69 50.3981C69 48.43 68.8696 46.645 68.3479 45.1346C67.9566 43.3954 66.3045 40.4661 62.6524 40.0084Z" fill="#EBE4C2"/>
<path d="M74.9531 14H32.0469C24.3481 14 18 20.284 18 28.0044V60.9956C18 68.6711 24.3031 75 32.0469 75H74.9531C82.6519 75 89 68.716 89 60.9956V28.0044C89 20.284 82.6519 14 74.9531 14ZM75.9436 64.5416H70.5859V61.4893C68.695 63.3745 65.8586 64.5865 61.8066 64.8558C54.1978 65.3495 49.6056 57.9882 49.6056 50.582C49.6056 42.4577 54.1528 36.7123 61.8066 36.3083C65.6335 36.0839 68.5599 37.5202 70.5859 39.8543V24.1442H75.9436V64.5416Z" fill="#EBE4C2"/>
<path d="M62.2271 52.4931C59.8337 51.7577 57.1118 50.3789 55.1877 49C55 49.5056 55 50.0112 55 50.6087C55 52.5851 55.1877 54.3776 55.7039 55.8484C56.1263 57.5949 57.9096 60.5365 61.8986 60.9961C64.996 61.0881 68.0464 59.5254 67.9995 57.3192C67.9056 55.067 65.9346 53.7341 62.2271 52.4931Z" fill="#EBE4C2"/>
</svg>
